<svg width="292" height="150" viewBox="0 0 292 150" fill="none" xmlns="http://www.w3.org/2000/svg">
<path d="M215.05 13.0138C232.001 14.296 237.41 15.7081 242.94 22.1435C249.569 29.8567 247.774 43.6364 245.609 50.3294L233.397 31.5403C232.945 30.8459 232.016 30.6488 231.322 31.1003C230.627 31.5518 230.43 32.481 230.882 33.1755L242.68 51.3271C236.677 50.8806 226.223 48.264 219.721 37.4357C215.92 31.1068 213.374 21.9126 215.05 13.0138Z" fill="#8FC81B"/>
<path d="M255.224 32.0981C261.622 27.0664 273.617 20.9538 289.119 28.1434C285.684 40.4192 280.208 46.5236 272.276 51.9408C267.735 55.0426 259.179 54.506 252.863 53.9951L269.901 38.2441C270.51 37.6818 270.547 36.7325 269.984 36.1242C269.422 35.5161 268.473 35.4789 267.864 36.0413L249.627 52.9012C245.983 45.2063 250.294 35.9763 255.224 32.0981Z" fill="#8FC81B"/>
<path d="M23.4 112.68C23.4 114.76 22.68 116.52 21.24 117.96C19.88 119.32 18.16 120 16.08 120C14.08 120 12.4 119.32 11.04 117.96C9.68 116.52 9 114.76 9 112.68V38.52C9 36.44 9.68 34.72 11.04 33.36C12.48 31.92 14.24 31.2 16.32 31.2C18.4 31.2 20.08 31.92 21.36 33.36C22.72 34.72 23.4 36.44 23.4 38.52V112.68ZM69.2119 121.2C62.4119 121.2 56.4919 119.8 51.4519 117C46.4919 114.12 42.6519 110.24 39.9319 105.36C37.2919 100.48 35.9719 94.96 35.9719 88.8C35.9719 81.6 37.4119 75.48 40.2919 70.44C43.2519 65.32 47.0919 61.4 51.8119 58.68C56.5319 55.96 61.5319 54.6 66.8119 54.6C70.8919 54.6 74.7319 55.44 78.3319 57.12C82.0119 58.8 85.2519 61.12 88.0519 64.08C90.8519 66.96 93.0519 70.32 94.6519 74.16C96.3319 78 97.1719 82.08 97.1719 86.4C97.0919 88.32 96.3319 89.88 94.8919 91.08C93.4519 92.28 91.7719 92.88 89.8519 92.88H44.0119L40.4119 80.88H84.4519L81.8119 83.28V80.04C81.6519 77.72 80.8119 75.64 79.2919 73.8C77.8519 71.96 76.0119 70.52 73.7719 69.48C71.6119 68.36 69.2919 67.8 66.8119 67.8C64.4119 67.8 62.1719 68.12 60.0919 68.76C58.0119 69.4 56.2119 70.48 54.6919 72C53.1719 73.52 51.9719 75.56 51.0919 78.12C50.2119 80.68 49.7719 83.92 49.7719 87.84C49.7719 92.16 50.6519 95.84 52.4119 98.88C54.2519 101.84 56.5719 104.12 59.3719 105.72C62.2519 107.24 65.2919 108 68.4919 108C71.4519 108 73.8119 107.76 75.5719 107.28C77.3319 106.8 78.7319 106.24 79.7719 105.6C80.8919 104.88 81.8919 104.28 82.7719 103.8C84.2119 103.08 85.5719 102.72 86.8519 102.72C88.6119 102.72 90.0519 103.32 91.1719 104.52C92.3719 105.72 92.9719 107.12 92.9719 108.72C92.9719 110.88 91.8519 112.84 89.6119 114.6C87.5319 116.36 84.6119 117.92 80.8519 119.28C77.0919 120.56 73.2119 121.2 69.2119 121.2ZM142.753 31.2C144.513 31.2 146.233 31.44 147.913 31.92C149.593 32.4 150.993 33.2 152.113 34.32C153.233 35.36 153.793 36.76 153.793 38.52C153.793 40.52 153.193 42.12 151.993 43.32C150.873 44.44 149.553 45 148.033 45C147.313 45 146.233 44.84 144.793 44.52C143.353 44.12 141.953 43.92 140.593 43.92C138.593 43.92 137.033 44.36 135.913 45.24C134.873 46.12 134.153 47.16 133.753 48.36C133.353 49.48 133.153 50.48 133.153 51.36V112.68C133.153 114.76 132.473 116.52 131.113 117.96C129.753 119.32 128.033 120 125.953 120C123.873 120 122.153 119.32 120.793 117.96C119.433 116.52 118.753 114.76 118.753 112.68V51.48C118.753 45.8 120.753 41 124.753 37.08C128.753 33.16 134.753 31.2 142.753 31.2ZM144.073 57C145.993 57 147.593 57.64 148.873 58.92C150.153 60.12 150.793 61.68 150.793 63.6C150.793 65.52 150.153 67.12 148.873 68.4C147.593 69.6 145.993 70.2 144.073 70.2H112.273C110.353 70.2 108.753 69.6 107.473 68.4C106.193 67.12 105.553 65.52 105.553 63.6C105.553 61.68 106.193 60.12 107.473 58.92C108.753 57.64 110.353 57 112.273 57H144.073ZM163.208 57H191.648C193.568 57 195.168 57.64 196.448 58.92C197.728 60.2 198.368 61.8 198.368 63.72C198.368 65.56 197.728 67.12 196.448 68.4C195.168 69.6 193.568 70.2 191.648 70.2H163.208C161.288 70.2 159.688 69.56 158.408 68.28C157.128 67 156.488 65.4 156.488 63.48C156.488 61.64 157.128 60.12 158.408 58.92C159.688 57.64 161.288 57 163.208 57ZM176.048 42C178.128 42 179.808 42.72 181.088 44.16C182.448 45.52 183.128 47.24 183.128 49.32V102.72C183.128 103.84 183.328 104.76 183.728 105.48C184.208 106.2 184.808 106.72 185.527 107.04C186.328 107.36 187.168 107.52 188.048 107.52C189.008 107.52 189.888 107.36 190.688 107.04C191.488 106.64 192.408 106.44 193.448 106.44C194.568 106.44 195.568 106.96 196.448 108C197.408 109.04 197.888 110.48 197.888 112.32C197.888 114.56 196.648 116.4 194.168 117.84C191.768 119.28 189.168 120 186.367 120C184.688 120 182.808 119.88 180.728 119.64C178.728 119.32 176.808 118.64 174.968 117.6C173.208 116.48 171.727 114.8 170.527 112.56C169.328 110.32 168.728 107.24 168.728 103.32V49.32C168.728 47.24 169.408 45.52 170.768 44.16C172.208 42.72 173.968 42 176.048 42ZM273.283 87.96C273.283 94.52 271.803 100.32 268.843 105.36C265.963 110.32 262.043 114.2 257.083 117C252.203 119.8 246.723 121.2 240.643 121.2C234.563 121.2 229.043 119.8 224.083 117C219.203 114.2 215.283 110.32 212.323 105.36C209.443 100.32 208.003 94.52 208.003 87.96C208.003 81.4 209.443 75.64 212.323 70.68C215.283 65.64 219.203 61.72 224.083 58.92C229.043 56.04 234.563 54.6 240.643 54.6C246.723 54.6 252.203 56.04 257.083 58.92C262.043 61.72 265.963 65.64 268.843 70.68C271.803 75.64 273.283 81.4 273.283 87.96ZM258.883 87.96C258.883 83.88 258.043 80.36 256.363 77.4C254.763 74.36 252.563 72 249.763 70.32C247.043 68.64 244.003 67.8 240.643 67.8C237.283 67.8 234.203 68.64 231.403 70.32C228.683 72 226.483 74.36 224.803 77.4C223.203 80.36 222.403 83.88 222.403 87.96C222.403 91.96 223.203 95.48 224.803 98.52C226.483 101.48 228.683 103.8 231.403 105.48C234.203 107.16 237.283 108 240.643 108C244.003 108 247.043 107.16 249.763 105.48C252.563 103.8 254.763 101.48 256.363 98.52C258.043 95.48 258.883 91.96 258.883 87.96Z" fill="#21C45D"/>
</svg>
